<svg version="1.0" 
  xmlns="http://www.w3.org/2000/svg" width="700pt" height="700pt" viewBox="0 0 700 700" preserveAspectRatio="xMidYMid meet">
  <g>
    <circle cx="350" cy="350" r="330" fill="goldenrod" />
  </g>
  <g transform="translate(0,700) scale(0.1,-0.1)" fill="#111" stroke="none">
    <path d="M3250 6993 c-253 -24 -457 -57 -616 -98 -1147 -298 -2060 -1139 -2445
    -2253 -120 -348 -177 -673 -186 -1067 -10 -419 47 -796 179 -1190 173 -517 447
    -955 847 -1356 300 -299 585 -502 964 -684 1016 -489 2241 -448 3222 110 919
    522 1553 1420 1728 2450 38 221 50 365 49 605 -2 810 -263 1552 -768 2185 -106
    133 -373 403 -503 509 -642 525 -1423 801 -2245 794 -105 0 -207 -3 -226 -5z
    m605 -312 c1085 -125 2016 -776 2506 -1752 332 -663 421 -1434 249 -2164 -237
    -1008 -963 -1848 -1930 -2235 -753 -301 -1610 -301 -2366 0 -674 269 -1235 759
    -1605 1405 -442 770 -532 1753 -240 2600 360 1042 1214 1820 2281 2079 347 83
    746 108 1105 67z"></path>
    <g fill="#111">
      <path d="M1335 5381 c-149 -38 -267 -102 -346 -188 -119 -131 -230 -333 -285
      -521 -47 -162 -57 -250 -51 -452 5 -190 21 -283 75 -440 l19 -55 832 -3 831
      -2 11 27 c6 16 25 80 41 143 26 99 31 139 35 282 6 184 -4 279 -43 426 -107
      400 -398 708 -742 786 -97 22 -284 20 -377 -3z m270 -181 c74 -11 195 -47
      195 -59 0 -3 -16 -15 -35 -25 -20 -11 -53 -39 -75 -62 -165 -179 -112 -458
      108 -566 60 -30 75 -33 152 -33 72 0 94 5 145 28 33 16 79 47 103 70 51 50
      53 48 79 -63 23 -97 24 -437 2 -515 l-14 -50 -682 -3 c-661 -2 -683 -2 -692
      17 -22 40 -41 198 -41 333 0 280 74 507 237 723 76 101 134 142 245 176 121
      37 174 43 273 29z"></path>
      <path d="M4400 5386 c-258 -54 -497 -223 -656 -462 -212 -319 -262 -748 -131
      -1129 l24 -70 959 0 959 0 32 96 c83 247 86 549 6 803 -31 102 -118 270 -183
      357 -142 190 -352 334 -575 395 -82 22 -346 28 -435 10z m366 -201 c69 -16
      144 -44 143 -54 0 -3 -19 -20 -42 -36 -94 -68 -156 -203 -143 -311 16 -135
      87 -239 204 -296 59 -29 76 -33 152 -33 72 0 94 4 145 28 33 15 83 51 112 79
      l51 51 20 -64 c49 -160 59 -388 25 -544 l-18 -80 -817 -3 -817 -2 -18 77
      c-14 60 -18 116 -17 243 1 145 4 177 27 265 129 485 559 779 993
      680z"></path>
    </g>
    <g fill="#111">
      <path d="M864 3137 c-3 -8 -4 -52 -2 -98 l3 -84 120 -3 121 -3 0 -102 c1 -86
      7 -126 42 -258 52 -201 95 -316 197 -524 157 -321 287 -516 498 -745 238
      -259 430 -399 712 -518 235 -99 421 -143 686 -163 464 -35 1021 104 1419 353
      522 329 855 774 926 1240 22 145 14 435 -15 572 -21 93 -82 290 -102 329 -9
      16 -129 17 -2305 17 -1903 0 -2296 -2 -2300 -13z m3297 -1290 c222 -58 395
      -159 557 -324 56 -57 102 -110 102 -118 0 -8 -37 -43 -82 -78 -349 -270 -727
      -432 -1128 -482 -160 -21 -415 -16 -554 9 -105 20 -295 71 -308 84 -14 14 57
      225 107 319 144 273 394 480 691 572 137 43 196 50 369 47 121 -3 168 -8 246
      -29z"></path>
    </g>
  </g>
</svg>