<svg version="1.0" 
  xmlns="http://www.w3.org/2000/svg" width="700.000000pt" height="700.000000pt" viewBox="0 0 700.000000 700.000000" preserveAspectRatio="xMidYMid meet">
  <g class="face" transform="translate(0.000000,700.000000) scale(0.100000,-0.100000)" fill="black" stroke="beige" stroke-width="30px">
    <path d="M2596 5419 c-2 -8 -7 -53 -10 -100 -6 -86 -6 -87 18 -93 36 -9 84 -53
    107 -99 31 -60 24 -168 -14 -225 -54 -82 -2 -76 -727 -82 l-645 -5 -3 -97 -3
    -98 137 0 137 0 -55 -58 c-98 -103 -173 -245 -200 -380 -19 -93 -13 -294 11
    -385 73 -275 309 -506 586 -572 l90 -21 0 -450 c0 -487 2 -502 60 -675 34 -98
    90 -156 195 -201 73 -32 79 -33 215 -33 137 0 142 1 220 34 68 29 93 47 169
    123 49 48 90 87 91 86 1 -2 10 -18 20 -37 26 -52 104 -130 155 -156 90 -46 143
    -55 317 -55 149 0 171 2 241 26 42 14 99 41 125 60 43 32 117 128 117 154 0 21
    17 9 62 -43 61 -71 140 -130 218 -162 53 -22 85 -28 175 -32 128 -6 195 5 281
    46 120 58 171 139 211 338 16 77 18 144 18 533 l0 444 86 23 c289 73 524 317
    585 605 24 113 14 340 -18 433 -46 129 -116 242 -202 324 l-35 34 59 28 c135
    64 220 208 220 374 0 128 -47 235 -142 319 -47 43 -137 86 -178 86 -21 0 -27
    -21 -33 -128 l-3 -63 47 -25 c147 -74 138 -326 -14 -383 -19 -7 -238 -11 -658
    -11 l-629 0 0 -100 0 -100 130 0 130 0 -69 -80 c-133 -154 -191 -315 -191 -529
    0 -135 11 -197 56 -311 87 -220 324 -428 537 -472 l58 -12 -3 -471 -3 -470 -24
    -53 c-29 -64 -86 -115 -146 -132 -27 -8 -80 -11 -132 -8 -73 3 -97 9 -141 33
    -69 38 -132 108 -162 182 -24 58 -24 59 -30 583 -4 289 -7 526 -8 528 -1 1 -60
    2 -131 2 l-128 0 -7 -37 c-3 -21 -6 -267 -6 -548 0 -550 -2 -577 -54 -655 -37
    -57 -112 -90 -200 -90 -95 0 -135 13 -189 60 -83 73 -81 56 -87 700 l-5 565
    -132 3 -133 3 0 -494 c0 -533 -2 -552 -56 -663 -31 -66 -117 -138 -187 -159
    -58 -17 -175 -20 -228 -5 -54 15 -124 81 -145 138 -17 43 -19 92 -22 518 l-3
    472 38 7 c116 21 273 115 379 227 153 159 223 339 224 569 0 213 -77 401 -229
    557 -24 24 -41 45 -39 46 2 1 28 15 59 29 165 79 254 290 204 482 -30 114 -118
    226 -210 265 -64 28 -114 35 -119 19z m-271 -833 c96 -37 153 -75 228 -156 213
    -225 211 -568 -3 -794 -126 -133 -271 -192 -450 -184 -349 16 -602 324 -552
    671 32 225 223 432 445 483 96 21 245 13 332 -20z m2591 23 c134 -25 276 -117
    359 -234 277 -387 -1 -926 -476 -925 -199 1 -386 104 -497 275 -87 133 -111
    335 -58 490 55 160 168 286 318 354 107 49 231 63 354 40z"></path>
  </g>
  <g class="eyes" transform="translate(0.000000,700.000000) scale(0.100000,-0.100000)" fill="beige" stroke="none">
    <path d="M2053 4170 c-89 -54 -82 -200 11 -244 88 -42 185 9 201 104 19 113
    -114 200 -212 140z"></path>
    <path d="M4724 4170 c-41 -26 -69 -88 -61 -136 22 -131 180 -166 254 -55 41 62
    22 152 -42 191 -42 26 -110 26 -151 0z"></path>
  </g>
</svg>